<svg xmlns="http://www.w3.org/2000/svg" width="120" height="120" viewBox="0 0 120 120">
  <style>
    path { fill: #fff; }
    rect { fill: #000; }

    @media (prefers-color-scheme: dark) {
      path { fill: #000; }
      rect { fill: #fff; }
    }
  </style>
  <g fill="none" fill-rule="evenodd">
    <rect width="120" height="120" rx="16"/>
    <path d="M75.7503782,76.4122012 L46.3676248,76.4122012 L43.4175492,83.8318219 L46.3676248,83.8318219 C49.2783661,83.8318219 51.3532526,84.3957131 52.5922844,85.5234955 C53.8313162,86.6512778 54.4508321,88.1253092 54.4508321,89.9455894 C54.4508321,91.7262984 53.8313162,93.1805441 52.5922844,94.3083265 C51.3532526,95.4361088 49.2783661,96 46.3676248,96 L30.0832073,96 C27.172466,96 25.0975794,95.4361088 23.8585477,94.3083265 C22.6195159,93.1805441 22,91.7065128 22,89.8862325 C22,88.0659522 22.6490166,86.582028 23.9470499,85.43446 C25.2450832,84.286892 27.3888048,83.7526793 30.3782148,83.8318219 L49.376702,36.227535 L41.4704992,36.227535 C38.5597579,36.227535 36.4848714,35.6636439 35.2458396,34.5358615 C34.0068079,33.4080791 33.387292,31.9340478 33.387292,30.1137675 C33.387292,28.2934872 34.0068079,26.8194559 35.2458396,25.6916735 C36.4848714,24.5638912 38.5597579,24 41.4704992,24 L67.6081694,24.059357 L91.6807867,83.8318219 C94.5128593,83.8318219 96.3812405,84.1483924 97.2859304,84.7815334 C99.0953101,86.0873866 100,87.8087387 100,89.9455894 C100,91.7262984 99.3903177,93.1805441 98.1709531,94.3083265 C96.9515885,95.4361088 94.8865356,96 91.9757943,96 L75.6913767,96 C72.7806354,96 70.7057489,95.4361088 69.4667171,94.3083265 C68.2276853,93.1805441 67.6081694,91.7065128 67.6081694,89.8862325 C67.6081694,88.1055235 68.2276853,86.6512778 69.4667171,85.5234955 C70.7057489,84.3957131 72.7806354,83.8318219 75.6913767,83.8318219 L78.6414523,83.8318219 L75.7503782,76.4122012 Z M70.7352496,64.2440231 L61,40.1450948 L51.2057489,64.2440231 L70.7352496,64.2440231 Z"/>
  </g>
</svg>
