<svg xmlns="http://www.w3.org/2000/svg" width="1750" height="690" viewBox="0 0 1750 690"><g fill="none" fill-rule="evenodd"><rect width="1750" height="690" fill="#691719"/><path stroke="#260100" stroke-width="2" d="M1262.2663,0.617316281 L1275.73214,1.11788213 L1282.39249,1.41486258 L1295.71737,2.09218768 L1309.24695,2.86729056 L1337.87589,4.64663213 C1339.07589,13.3166321 1352.08589,14.0366321 1354.04589,5.29663213 C1396.21589,8.35663213 1448.44589,19.7166321 1482.53589,35.8966321 L1479.96219,39.3291103 L1479.30061,40.1274193 L1478.70464,40.700947 L1475.77286,43.0569601 L1474.67589,43.9766321 L1538.48589,290.686632 L1568.19589,295.936632 L1585.4276,300.618872 C1619.91439,310.114979 1654.54113,320.587725 1689.30269,335.400952 L1697.99589,339.196632 C1706.00756,342.404965 1711.08665,347.814827 1714.73518,354.586638 L1715.69589,356.466632 L1721.95589,379.186632 L1723.27295,385.908345 C1723.798,388.708601 1724.03451,390.864859 1723.48053,393.263191 L1723.13589,394.486632 L1667.40589,394.486632 C1656.78589,396.250632 1654.84099,401.035932 1654.23745,409.301802 L1654.07589,412.186632 L1652.98589,454.576632 C1652.98589,467.351215 1658.40447,470.895851 1671.16032,471.169059 L1672.86589,471.186632 L1718.10589,471.186632 L1712.41589,505.716632 L1704.11589,516.196632 L1605.56589,516.856632 C1599.20172,503.864371 1623.32092,553.309059 1625.01789,593.774632 L1616.42352,594.314542 L1610.29956,594.622324 L1607.57943,594.696916 L1605.16469,594.69792 C1602.57223,594.648696 1600.84789,594.410017 1600.84789,593.844632 C1597.56789,542.054632 1555.52789,502.764632 1513.12789,506.054632 L1510.71358,506.141386 L1508.13288,506.297399 L1503.98026,506.679678 L1501.04442,507.045641 L1497.99086,507.510307 L1494.83348,508.082088 L1491.5862,508.769398 L1489.93319,509.159005 L1486.57711,510.035381 L1483.1659,511.048318 C1482.02118,511.409658 1480.86959,511.795161 1479.71344,512.206228 L1476.23366,513.517524 C1449.48607,524.180272 1421.55482,549.108289 1420.63903,605.361366 L1420.61789,609.074632 L1392.06789,609.074632 L1341.37789,609.514632 L1249.15789,622.404632 L1182.06789,611.694632 L1180.10789,625.684632 L549.337891,625.124632 C560.389606,574.107175 541.818973,543.832339 518.549074,526.604533 L515.349119,524.335434 C513.199518,522.875651 511.020442,521.520804 508.830618,520.265111 L505.472938,518.419795 L502.11339,516.724736 L498.766897,515.175326 L495.448378,513.766958 L491.362302,512.197818 L487.372394,510.832858 L484.269294,509.881853 L481.261314,509.051156 L479.797658,508.679484 L476.960338,508.020612 L474.255441,507.47053 L471.697891,507.024632 C427.366704,503.649717 404.427957,524.475594 391.027123,546.207334 L388.025748,551.3598 L386.205705,554.779635 L385.346056,556.477368 L383.721024,559.835729 L382.213038,563.127636 L380.147834,567.896319 L375.547891,579.134632 L376.207891,578.914632 C373.005669,590.666299 374.975823,601.768151 377.492261,612.014786 L379.579221,620.203398 C380.252946,622.866546 380.87346,625.461916 381.346922,627.985342 L381.767891,630.484632 L128.248353,630.475784 L122.808029,630.402969 L117.754441,630.252162 L113.073669,630.01796 L108.751793,629.69496 L104.774893,629.277759 C84.4599487,626.791878 78.2700607,620.056234 76.7025087,605.38246 L76.41522,601.796184 L76.2556365,597.094067 L76.2358907,579.25 L45.8558907,579.296632 L45.8558907,541.766632 C45.8558907,534.931338 42.7429495,533.426701 36.3997784,532.74548 L31.8758907,532.376632 L13.9558907,532.376632 L14.1758907,516.856632 L22.4758907,505.716632 L22.0958907,481.676632 L12.8658907,481.676632 L12.8658907,453.926632 L22.4758907,453.926632 L22.4758907,418.736632 L15.0458907,410.436632 L15.2262842,395.493883 L15.6827657,365.966163 L16.2409139,336.647193 L18.5458907,231.026632 L11.1058907,229.496632 L11.7758907,201.096632 L19.4258907,197.596632 L22.9807055,149.088484 C23.4817426,142.387447 24.0009722,135.604751 24.5472359,128.75438 L26.2759707,108.014232 C27.7989041,90.5848988 29.5460596,72.8200099 31.6555855,54.938084 L32.9658907,44.1966321 L31.6558907,35.8966321 L38.6458907,27.3666321 L39.221793,22.2270692 L39.4159071,20.9604091 L39.6646483,19.698473 L39.9846821,18.4449447 L40.1766419,17.8224846 L40.6348632,16.5884748 C40.805504,16.1798698 40.9949709,15.7742008 41.2060417,15.372082 L41.9068431,14.1769898 C44.2203474,10.6273476 48.508749,7.41499317 56.7969381,4.98749222 L59.7105858,4.20800783 L62.9371797,3.49034441 C65.1962613,3.03332771 67.6750843,2.61998076 70.3958697,2.25521514 L75.786317,1.62940993 L83.0492559,1.03887221 L89.801899,0.688889642 L95.6857587,0.507115723 L102.015891,0.416632125 L169.385891,0.416632125 L169.802453,1.41663213 C170.647141,3.21663213 172.810891,6.81663213 176.605891,6.81663213 C179.979224,6.81663213 182.068113,3.97218768 183.085891,2.07589138 L183.651724,0.890706199 L183.835891,0.416632125 L295.345891,0.416632125 C298.8968,9.37981394 306.830374,9.19497923 310.005638,1.55812255 L310.425891,0.416632125 L425.375891,0.416632125 C427.049804,8.98706691 435.915097,10.3569724 439.553333,1.66459465 L440.015891,0.416632125 L565.375891,0.546632125 C568.513282,7.23271908 575.246363,10.4695055 580.219191,1.61046873 L580.885891,0.326632125 L696.905891,0.326632125 L697.146724,0.842928421 L697.783639,1.99450966 C699.037564,4.05644617 701.634982,7.29663213 705.575891,7.29663213 C709.577429,7.29663213 711.498849,3.95598124 712.302418,1.90019608 L712.683082,0.77078324 L712.795891,0.326632125 L830.105891,0.326632125 C830.105891,9.27746546 842.541064,10.2565627 844.932738,1.52125452 L845.185891,0.326632125 L948.245891,0.326632125 C949.565891,5.29663213 953.935891,7.48663213 957.215891,7.48663213 C960.213391,7.48663213 963.589016,5.84809046 964.469716,1.56197356 L964.645891,0.326632125 L1083.73589,0.306632125 C1084.15756,9.69829879 1097.41849,10.0896182 1099.10373,1.26055646 L1099.25589,0.0566321251 L1194.96589,0.0566321251 C1195.39589,9.66663213 1209.38589,9.66663213 1210.47589,0.0566321251 L1216.78642,0.0133515657 L1228.90613,0.0133515657 L1240.45107,0.11866581 C1242.33358,0.144638315 1244.19681,0.174716005 1246.04313,0.20874156 L1256.93669,0.459010715 C1258.72469,0.508198451 1260.50044,0.561019414 1262.2663,0.617316281 Z" transform="matrix(-1 0 0 1 1734.904 0)"/><g transform="matrix(-1 0 0 1 323.313 499.072)"><path fill="#260100" d="M97.4,194.8 C151.19,194.8 194.8,151.19 194.8,97.4 C194.8,43.6 151.19,0 97.4,0 C43.6,0 0,43.6 0,97.4 C0,151.19 43.6,194.8 97.4,194.8"/><path fill="#A12026" d="M97.4,152.51 C127.83,152.51 152.51,127.83 152.51,97.4 C152.51,66.96 127.83,42.29 97.4,42.29 C66.96,42.29 42.28,66.96 42.28,97.4 C42.28,127.83 66.96,152.51 97.4,152.51"/><path stroke="#260100" stroke-width="2" d="M97.4,147.998 C125.34,147.998 148,125.338 148,97.398 C148,69.458 125.34,46.798 97.4,46.798 C69.45,46.798 46.79,69.458 46.79,97.398 C46.79,125.338 69.45,147.998 97.4,147.998 Z"/><path stroke="#260100" stroke-width="2" d="M97.4,119.619 C109.67,119.619 119.62,109.669 119.62,97.399 C119.62,85.129 109.67,75.179 97.4,75.179 C85.12,75.179 75.17,85.129 75.17,97.399 C75.17,109.669 85.12,119.619 97.4,119.619 Z"/></g><path stroke="#260100" stroke-width="2" d="M221.513094,461.576632 C192.425045,461.677917 173.351366,466.3572 160.172238,473.798035 C190.676216,459.398919 251.897216,456.105645 281.368857,473.871166 C268.311827,464.864733 250.713516,461.576632 221.513094,461.576632 Z" transform="matrix(-1 0 0 1 441.541 0)"/><path stroke="#260100" stroke-width="2" d="M174.202,38.5196321 C202.438923,116.981171 228.818331,194.002709 251.436829,272.934853 L257.012,292.709632 L231.442,288.939632 L168.022,45.6696321 L174.202,38.5196321 Z" transform="matrix(-1 0 0 1 425.034 0)"/><path fill="#A12026" stroke="#260100" stroke-width="2" d="M964.644274,0.326632125 C964.204274,5.53663213 960.484274,7.48663213 957.214274,7.48663213 C953.934274,7.48663213 949.564274,5.29663213 948.244274,0.326632125 L845.184274,0.326632125 C843.644274,10.3266321 830.104274,9.66663213 830.104274,0.326632125 L712.794274,0.326632125 C712.794274,0.326632125 711.354274,7.29663213 705.574274,7.29663213 C699.794274,7.29663213 696.904274,0.326632125 696.904274,0.326632125 L580.884274,0.326632125 C575.864274,10.7566321 568.654274,7.53663213 565.374274,0.546632125 L440.014274,0.416632125 C436.734274,10.4666321 427.124274,9.37663213 425.374274,0.416632125 L310.424274,0.416632125 C307.594274,9.15663213 299.064274,9.80663213 295.344274,0.416632125 L183.834274,0.416632125 C183.834274,0.416632125 181.664274,6.81663213 176.604274,6.81663213 C171.544274,6.81663213 169.384274,0.416632125 169.384274,0.416632125 L102.014274,0.416632125 C37.3442742,0.846632125 40.1842742,15.1266321 38.6442742,27.3666321 L31.6542742,35.8966321 L32.9642742,44.1966321 C26.1842742,97.9566321 22.9142742,151.056632 19.4242742,197.596632 L11.7742742,201.096632 L11.1042742,229.496632 L18.5442742,231.026632 C17.2342742,294.406632 15.6942742,350.346632 15.0442742,410.436632 L22.4742742,418.736632 L22.4742742,453.926632 L12.8642742,453.926632 L12.8642742,481.676632 L22.0942742,481.676632 L22.4742742,505.716632 L14.1742742,516.856632 L13.9542742,532.376632 L31.8742742,532.376632 C41.2642742,533.026632 45.8542742,533.466632 45.8542742,541.766632 L45.8542742,579.296632 L328.574274,578.916632 L365.274274,510.526632 C383.854274,480.146632 401.984274,476.206632 469.294274,474.906632 C518.904274,475.556632 539.434274,482.336632 556.704274,512.266632 C570.684274,538.486632 574.624274,542.176632 589.474274,581.516632 L1392.72427,581.326632 C1402.34427,554.666632 1413.92427,530.186632 1426.37427,505.056632 C1437.30427,481.676632 1454.56427,461.786632 1514.87427,461.576632 C1571.69427,461.576632 1584.58427,474.026632 1605.56427,516.856632 L1704.11427,516.196632 L1712.41427,505.716632 L1718.10427,471.186632 L1672.86427,471.186632 C1658.88427,471.186632 1652.98427,467.906632 1652.98427,454.576632 L1654.07427,412.186632 C1654.51427,402.136632 1655.60427,396.446632 1667.40427,394.486632 L1723.13427,394.486632 C1724.65427,389.896632 1723.26427,386.616632 1721.95427,379.186632 L1715.69427,356.466632 C1711.98427,348.816632 1706.73427,342.696632 1697.99427,339.196632 C1654.51427,319.746632 1611.24427,307.516632 1568.19427,295.936632 L1538.48427,290.686632 L1474.67427,43.9766321 C1480.34427,39.1666321 1477.94427,42.0066321 1482.53427,35.8966321 C1448.44427,19.7166321 1396.21427,8.35663213 1354.04427,5.29663213 C1352.08427,14.0366321 1339.07427,13.3166321 1337.87427,4.64663213 C1292.64427,1.79663213 1259.85427,-0.383367875 1210.47427,0.0566321251 C1209.38427,9.66663213 1195.39427,9.66663213 1194.96427,0.0566321251 L1099.25427,0.0566321251 C1098.59427,10.1066321 1084.17427,10.1066321 1083.73427,0.306632125 L964.644274,0.326632125 Z" transform="matrix(-1 0 0 1 1734.902 0)"/><path fill="#691719" stroke="#260100" stroke-width="2" d="M434.596019,128.983632 C422.136019,129.633632 421.916019,132.693632 421.916019,139.683632 L424.976019,260.753632 C426.506019,264.683632 430.006019,270.803632 435.676019,273.643632 L480.046019,279.763632 C482.446019,279.763632 486.156019,277.353632 487.256019,275.393632 C492.286019,266.213632 489.656019,250.913632 486.386019,232.563632 L463.436019,138.813632 C460.816019,130.073632 445.516019,130.073632 434.596019,128.983632 M403.561019,128.324632 L266.551019,122.424632 C258.901019,123.954632 252.121019,133.134632 252.121019,138.154632 L252.241019,241.734632 C259.451019,251.794632 255.411019,246.104632 263.711019,252.224632 L407.501019,270.474632 C411.431019,268.504632 413.291019,261.624632 414.381019,256.814632 L413.831019,141.004632 C413.831019,135.534632 410.991019,128.324632 403.561019,128.324632 M435.680019,69.9806321 L259.340019,67.1406321 C254.100019,68.6706321 249.720019,67.5806321 250.820019,77.8506321 L250.820019,107.790632 C252.560019,112.370632 254.100019,113.250632 259.340019,114.340632 L450.760019,122.210632 C459.280019,122.650632 459.280019,118.930632 458.190019,114.340632 L450.100019,76.1006321 C447.260019,71.7306321 442.680019,69.9806321 435.680019,69.9806321" transform="matrix(-1 0 0 1 740.714 0)"/><path stroke="#260100" stroke-width="2" d="M514.393,365.204632 L515.273,287.414632 L459.983,67.1346321 C454.653,50.8846321 441.403,49.4346321 430.913,49.2246321 L219.713,45.8346321 L219.583,573.014632 L369.953,573.704632 C374.103,558.404632 381.093,542.644632 387.213,527.564632 C397.053,504.614632 409.943,481.454632 429.823,459.824632 C445.553,446.274632 471.563,442.564632 513.743,440.814632 L514.393,365.204632" transform="matrix(-1 0 0 1 734.856 0)"/><path stroke="#260100" stroke-width="2" d="M1701.199,43.9796321 C1610.079,34.1496321 1517.859,33.9296321 1425.069,32.1796321 L260.229,32.3996321" transform="matrix(-1 0 0 1 1961.428 0)"/><path fill="#260100" d="M-0.024,517.074632 L112.956,517.074632 C121.906,517.074632 126.286,519.484632 128.686,525.604632 L128.686,564.494632 L125.846,566.894632 C123.666,579.784632 128.036,588.534632 119.296,597.924632 C112.086,605.794632 103.556,606.234632 95.916,610.384632 C68.596,601.424632 68.156,596.834632 16.146,596.834632 L15.706,592.034632 C17.896,573.454632 8.716,540.674632 -0.024,517.074632 Z" transform="matrix(-1 0 0 1 128.662 0)"/><path stroke="#260100" stroke-width="2" d="M363.81,517.074632 C352.88,493.694632 340.21,479.494632 322.95,460.694632 C296.51,436.224632 218.71,435.564632 168.67,453.924632 C127.59,488.454632 115.79,531.744632 102.68,574.574632" transform="matrix(-1 0 0 1 466.49 0)"/><path stroke="#260100" stroke-width="2" d="M363.81,517.074632 C352.88,493.694632 340.21,479.494632 322.95,460.694632 C296.51,436.224632 218.71,435.564632 168.67,453.924632 C127.59,488.454632 115.79,531.744632 102.68,574.574632" transform="matrix(-1 0 0 1 466.49 0)"/><path stroke="#260100" stroke-width="2" d="M1425.132,574.984632 C1419.022,558.594632 1413.332,543.524632 1406.342,529.314632 C1399.562,515.324632 1391.702,501.344632 1381.212,486.264632 C1376.622,481.894632 1368.982,476.214632 1360.012,471.184632 C1351.062,465.934632 1340.562,461.794632 1330.072,460.254632 C1310.632,456.984632 1292.272,456.764632 1274.352,456.764632 C1256.442,456.764632 1235.892,460.254632 1216.452,462.014632 C1201.372,469.214632 1194.822,469.004632 1185.202,478.174632 C1156.352,505.714632 1169.902,498.724632 1160.292,506.364632 C1154.602,519.044632 1148.052,528.654632 1142.372,540.894632 C1136.472,553.124632 1130.782,565.374632 1125.102,577.384632" transform="matrix(-1 0 0 1 2550.234 0)"/><path stroke="#260100" stroke-width="2" d="M1425.132,573.349632 C1419.022,556.959632 1413.332,543.519632 1406.342,529.309632 C1399.562,515.329632 1391.702,501.339632 1381.212,486.269632 C1376.622,481.889632 1368.982,476.209632 1360.012,471.189632 C1351.062,465.939632 1340.562,461.789632 1330.072,460.259632 C1310.632,456.979632 1292.272,456.759632 1274.352,456.759632 C1256.442,456.759632 1235.892,460.259632 1216.452,462.009632 C1201.372,469.219632 1194.822,468.999632 1185.202,478.179632 C1156.352,505.709632 1169.902,498.719632 1160.292,506.369632 C1154.602,519.039632 1148.052,528.659632 1142.372,540.889632 C1136.472,553.129632 1130.782,565.369632 1125.102,577.389632" transform="matrix(-1 0 0 1 2550.234 0)"/><path stroke="#260100" stroke-width="2" d="M504.442,347.065632 L467.502,346.415632 L41.602,302.055632 C30.242,298.555632 25.912,293.695632 25.092,271.845632 L25.092,66.7856321 C25.912,61.0056321 34.162,59.4956321 41.382,59.4956321" transform="matrix(-1 0 0 1 529.534 0)"/><path stroke="#260100" stroke-width="2" d="M498.456579,346.190632 C445.356579,330.900632 206.086579,307.730632 63.8165792,288.720632 C58.7965792,285.440632 56.8865792,278.230632 56.2265792,273.640632 L56.3865792,71.0706321 C54.8665792,60.8006321 60.5465792,60.5806321 66.4465792,59.4906321 L248.476579,61.2406321 C270.106579,61.6706321 271.506579,71.1206321 272.946579,76.3206321 L312.716579,243.050632 L317.306579,264.250632 C319.926579,271.890632 319.266579,278.670632 313.806579,281.950632 L77.5865792,252.230632" transform="matrix(-1 0 0 1 554.594 0)"/><path fill="#260100" d="M1735.59336,532.675632 L1695.16336,532.425632 C1691.66336,533.305632 1690.13336,534.235632 1688.82336,538.605632 L1695.16336,576.845632 C1696.69336,580.785632 1699.31336,582.085632 1702.38336,582.525632 L1741.49336,583.185632 C1744.33336,580.345632 1746.95336,579.025632 1745.85336,577.935632 L1745.83336,540.535632 C1745.83336,536.845632 1741.64336,532.675632 1735.59336,532.675632 Z" transform="matrix(-1 0 0 1 3434.933 0)"/><line x1="106.176" x2="26.196" y1="508.115" y2="508.115" stroke="#260100" stroke-width="2" transform="matrix(-1 0 0 1 132.372 0)"/><line x1="1155.784" x2="339.204" y1="507.681" y2="507.681" stroke="#260100" stroke-width="2" transform="matrix(-1 0 0 1 1494.988 0)"/><line x1="1718.376" x2="1394.096" y1="513.359" y2="513.359" stroke="#260100" stroke-width="2" transform="matrix(-1 0 0 1 3112.472 0)"/><line x1="82.269" x2="1718.129" y1="412.378" y2="412.568" stroke="#260100" stroke-width="2" transform="matrix(-1 0 0 1 1800.398 0)"/><line x1="84.012" x2="1713.002" y1="418.74" y2="418.96" stroke="#260100" stroke-width="2" transform="matrix(-1 0 0 1 1797.014 0)"/><line x1="901.321" x2="901.371" y1="32.988" y2="572.448" stroke="#260100" stroke-width="2" transform="matrix(-1 0 0 1 1802.692 0)"/><line x1="1641.063" x2="1640.913" y1="32.549" y2="570.619" stroke="#260100" stroke-width="2" transform="matrix(-1 0 0 1 3281.976 0)"/><line x1="542.453" x2="542.563" y1="572.725" y2="32.505" stroke="#260100" stroke-width="2" transform="matrix(-1 0 0 1 1085.016 0)"/><line x1="1125.758" x2="515.278" y1="573.208" y2="573.208" stroke="#260100" stroke-width="2" transform="matrix(-1 0 0 1 1641.036 0)"/><line x1="1687.907" x2="1423.217" y1="570.645" y2="570.235" stroke="#260100" stroke-width="2" transform="matrix(-1 0 0 1 3111.124 0)"/><g transform="matrix(-1 0 0 1 1368.313 499.072)"><path fill="#260100" d="M97.4,194.8 C151.19,194.8 194.8,151.19 194.8,97.4 C194.8,43.6 151.19,0 97.4,0 C43.6,0 0,43.6 0,97.4 C0,151.19 43.6,194.8 97.4,194.8"/><path fill="#A12026" d="M97.4,152.51 C127.83,152.51 152.51,127.83 152.51,97.4 C152.51,66.96 127.83,42.29 97.4,42.29 C66.96,42.29 42.28,66.96 42.28,97.4 C42.28,127.83 66.96,152.51 97.4,152.51"/><path stroke="#260100" stroke-width="2" d="M97.4,147.998 C125.34,147.998 148,125.338 148,97.398 C148,69.458 125.34,46.798 97.4,46.798 C69.45,46.798 46.79,69.458 46.79,97.398 C46.79,125.338 69.45,147.998 97.4,147.998 Z"/><path stroke="#260100" stroke-width="2" d="M97.4,119.619 C109.67,119.619 119.62,109.669 119.62,97.399 C119.62,85.129 109.67,75.179 97.4,75.179 C85.12,75.179 75.17,85.129 75.17,97.399 C75.17,109.669 85.12,119.619 97.4,119.619 Z"/></g><path fill="#A12026" stroke="#260100" stroke-width="2" d="M80.196,395.795632 L79.376,405.795632 L77.126,405.795632 L76.746,413.285632 L79.346,413.285632 L78.526,422.055632 L76.286,422.055632 L75.906,430.775632 L78.496,430.775632 L77.686,439.545632 L75.436,439.545632 L75.056,448.265632 L77.656,448.265632 L76.836,457.045632 L74.586,457.045632 L74.206,464.935632 L76.806,464.935632 L75.606,469.685632 L23.596,469.625632 C17.256,467.905632 13.306,466.385632 12.426,457.425632 L13.516,403.885632 C13.596,403.555632 17.406,396.775632 24.246,395.795632 L80.196,395.795632" transform="matrix(-1 0 0 1 92.622 0)"/><path stroke="#260100" stroke-width="2" d="M476.166,343.148632 C467.186,343.148632 459.536,347.418632 459.536,353.488632 C459.536,359.328632 467.186,363.828632 476.166,363.828632 C485.156,363.828632 492.796,359.328632 492.796,353.488632 C492.796,347.418632 485.156,343.148632 476.166,343.148632 Z" transform="matrix(-1 0 0 1 952.332 0)"/><path fill="#FFFFFE" d="M40.48,404.706632 L26.86,404.706632 C24.23,404.296632 22.7,405.606632 22.7,408.236632 L22.7,457.406632 C22.7,460.026632 24.23,461.336632 26.86,461.336632 L40.48,461.336632 C43.1,461.336632 44.63,460.026632 44.63,457.406632 L44.63,408.236632 C44.63,405.606632 43.1,404.296632 40.48,404.706632" transform="matrix(-1 0 0 1 67.33 0)"/><path stroke="#260100" stroke-width="2" d="M40.48,404.706632 L26.86,404.706632 C24.23,404.296632 22.7,405.606632 22.7,408.236632 L22.7,457.406632 C22.7,460.026632 24.23,461.336632 26.86,461.336632 L40.48,461.336632 C43.1,461.336632 44.63,460.026632 44.63,457.406632 L44.63,408.236632 C44.63,405.606632 43.1,404.296632 40.48,404.706632 Z" transform="matrix(-1 0 0 1 67.33 0)"/><path fill="#FFE511" d="M72.249,404.735632 L52.689,404.735632 C47.869,404.735632 43.939,406.045632 43.509,409.755632 L42.689,453.905632 C42.689,458.925632 47.489,461.115632 52.739,461.145632 L73.129,461.145632 L71.259,458.925632 L71.259,407.795632 L72.249,404.735632 Z" transform="matrix(-1 0 0 1 115.818 0)"/><path stroke="#260100" stroke-width="2" d="M72.249,404.735632 L52.689,404.735632 C47.869,404.735632 43.939,406.045632 43.509,409.755632 L42.689,453.905632 C42.689,458.925632 47.489,461.115632 52.739,461.145632 L73.129,461.145632 L71.259,458.925632 L71.259,407.795632 L72.249,404.735632 Z" transform="matrix(-1 0 0 1 115.818 0)"/><line x1="71.716" x2="44.116" y1="412.817" y2="412.817" stroke="#260100" stroke-width="2" transform="matrix(-1 0 0 1 115.832 0)"/><line x1="71.715" x2="44.555" y1="421.782" y2="421.782" stroke="#260100" stroke-width="2" transform="matrix(-1 0 0 1 116.27 0)"/><line x1="72.566" x2="44.116" y1="429.863" y2="429.863" stroke="#260100" stroke-width="2" transform="matrix(-1 0 0 1 116.682 0)"/><line x1="72.715" x2="44.555" y1="439.482" y2="439.482" stroke="#260100" stroke-width="2" transform="matrix(-1 0 0 1 117.27 0)"/><line x1="72.564" x2="44.584" y1="447.124" y2="447.124" stroke="#260100" stroke-width="2" transform="matrix(-1 0 0 1 117.148 0)"/><line x1="73.125" x2="44.555" y1="454.995" y2="454.995" stroke="#260100" stroke-width="2" transform="matrix(-1 0 0 1 117.68 0)"/><line x1="196.424" x2="219.584" y1="287.412" y2="290.692" stroke="#260100" stroke-width="2" transform="matrix(-1 0 0 1 416.008 0)"/><path stroke="#260100" stroke-width="2" d="M1637.022,300.522632 C1654.882,300.522632 1663.462,290.802632 1663.462,282.442632 L1663.482,67.3626321 C1663.482,55.2226321 1659.222,45.0726321 1640.342,45.0726321 L549.632,45.0726321 C535.362,45.0726321 523.792,53.7826321 523.792,66.4826321 L523.652,280.202632 C523.652,292.972632 532.362,300.082632 548.532,300.522632 L1637.022,300.522632 Z" transform="matrix(-1 0 0 1 2187.134 0)"/><path stroke="#260100" stroke-width="2" d="M1637.415,291.342632 C1652.365,291.342632 1656.305,285.022632 1656.305,278.452632 L1655.865,68.2226321 C1655.865,60.2826321 1652.365,52.5026321 1643.185,52.5026321 L549.635,52.5026321 C539.345,52.5026321 532.095,62.4526321 532.095,70.6426321 L531.925,273.802632 C531.925,285.742632 536.455,291.402632 550.275,291.402632 L1637.415,291.342632 Z" transform="matrix(-1 0 0 1 2188.23 0)"/><line x1="542.457" x2="1638.657" y1="84.624" y2="84.624" stroke="#260100" stroke-width="2" transform="matrix(-1 0 0 1 2181.114 0)"/><line x1="542.897" x2="1639.877" y1="240.43" y2="240.43" stroke="#260100" stroke-width="2" transform="matrix(-1 0 0 1 2182.774 0)"/><line x1="1641.302" x2="543.442" y1="163.945" y2="163.945" stroke="#260100" stroke-width="2" transform="matrix(-1 0 0 1 2184.744 0)"/><line x1="1640.5" x2="542.67" y1="94.673" y2="94.673" stroke="#260100" stroke-width="2" transform="matrix(-1 0 0 1 2183.17 0)"/><line x1="1641.855" x2="543.325" y1="250.698" y2="250.698" stroke="#260100" stroke-width="2" transform="matrix(-1 0 0 1 2185.18 0)"/><line x1="1641.521" x2="542.241" y1="173.999" y2="173.999" stroke="#260100" stroke-width="2" transform="matrix(-1 0 0 1 2183.762 0)"/><path fill="#A12026" d="M475.483,357.084632 C461.543,357.084632 450.313,355.504632 450.313,353.484632 C450.313,351.244632 461.543,349.664632 475.483,349.664632 C489.193,349.664632 500.663,351.244632 500.663,353.484632 C500.663,355.504632 489.193,357.084632 475.483,357.084632" transform="matrix(-1 0 0 1 950.976 0)"/><path stroke="#260100" stroke-width="2" d="M475.483,357.084632 C461.543,357.084632 450.313,355.504632 450.313,353.484632 C450.313,351.244632 461.543,349.664632 475.483,349.664632 C489.193,349.664632 500.663,351.244632 500.663,353.484632 C500.663,355.504632 489.193,357.084632 475.483,357.084632 Z" transform="matrix(-1 0 0 1 950.976 0)"/><path fill="#FFF" stroke="#260100" stroke-width="2" d="M266.241202,168.734632 C258.931202,169.154632 258.061202,175.324632 256.261202,186.434632 C254.451202,197.554632 256.001202,245.174632 259.001202,254.774632 C262.001202,264.394632 268.461202,270.134632 279.421202,269.494632 C290.401202,268.864632 299.001202,269.584632 301.951202,257.174632 C304.901202,244.774632 300.611202,200.314632 296.311202,189.554632 C292.021202,178.794632 291.841202,167.244632 266.241202,168.734632" transform="matrix(-1 0 0 1 558.413 0)"/><polygon fill="#D8D8D8" stroke="#260100" stroke-width="2" points="272.045 309.624 246.705 307.844 238.335 201.154 245.345 201.094 251.755 283.294 271.345 284.954 271.425 289.394 252.255 287.714 253.095 303.844 272.445 305.874" transform="matrix(-1 0 0 1 510.78 0)"/><polygon fill="#FFF" stroke="#260100" stroke-width="2" points="275.235 228.501 273.965 206.531 259.995 207.351 261.265 229.311" transform="matrix(-1 0 0 1 535.23 0)"/></g></svg>